<?xml version="1.0" standalone="no"?>
<!DOCTYPE svg PUBLIC "-//W3C//DTD SVG 20010904//EN"
 "http://www.w3.org/TR/2001/REC-SVG-20010904/DTD/svg10.dtd">
<svg version="1.0" xmlns="http://www.w3.org/2000/svg"
 width="583.000000pt" height="673.000000pt" viewBox="0 0 583.000000 673.000000"
 preserveAspectRatio="xMidYMid meet">

<g transform="translate(0.000000,673.000000) scale(0.100000,-0.100000)"
fill="#000000" stroke="none">
<path d="M2935 6649 c-33 -5 -157 -23 -275 -40 -311 -44 -518 -93 -680 -162
-169 -71 -252 -128 -375 -253 -44 -45 -105 -97 -135 -116 -30 -20 -73 -53 -95
-75 -22 -22 -61 -54 -87 -71 -25 -17 -63 -51 -83 -74 -50 -58 -130 -221 -150
-304 -21 -87 -29 -265 -17 -369 5 -44 7 -85 3 -91 -5 -10 -139 -159 -192 -214
-10 -11 -47 -22 -95 -29 -461 -67 -736 -479 -679 -1016 8 -73 39 -164 88 -253
l28 -53 -18 -117 c-22 -147 -25 -551 -5 -682 50 -320 123 -538 252 -750 173
-287 551 -700 752 -822 15 -10 28 -23 28 -29 0 -7 -25 -50 -55 -96 -156 -236
-286 -527 -401 -898 -38 -124 -40 -135 -20 -135 10 0 24 30 41 88 84 279 180
517 303 747 63 117 163 275 175 275 5 0 59 -20 120 -44 258 -101 447 -154 632
-176 126 -16 832 -29 995 -19 242 14 392 50 669 160 l83 33 30 -35 c16 -19 73
-99 126 -179 146 -218 261 -461 349 -732 34 -104 41 -118 61 -118 18 0 20 3
14 17 -5 10 -24 65 -42 123 -33 103 -42 127 -74 202 -9 20 -16 38 -16 41 0 8
-58 136 -76 169 -8 14 -31 59 -52 100 -43 82 -112 200 -122 208 -3 3 -17 23
-30 45 -13 22 -35 51 -47 65 -13 14 -23 30 -23 36 0 6 -9 19 -20 29 -34 31
-21 55 55 101 39 23 75 46 80 51 6 5 26 19 45 33 105 71 282 244 458 447 45
52 60 63 95 68 59 9 140 33 179 52 77 38 178 131 213 198 15 27 30 38 60 46
105 29 202 106 279 223 40 61 96 165 96 180 0 35 137 259 184 301 6 6 33 39
59 75 26 36 51 70 55 75 15 19 43 80 64 139 15 43 21 86 22 160 1 139 -15 416
-26 422 -4 3 -9 94 -9 202 -2 368 -27 752 -50 777 -5 5 -9 19 -9 30 0 30 -37
150 -66 212 -13 29 -26 64 -30 78 -3 14 -10 25 -15 25 -5 0 -9 9 -9 20 0 11
-4 20 -9 20 -5 0 -14 12 -20 28 -39 98 -137 248 -222 343 -69 77 -139 176
-139 196 0 7 -4 13 -10 13 -5 0 -10 5 -10 11 0 47 -259 327 -370 401 -50 32
-286 154 -400 206 -25 11 -94 44 -155 72 -60 28 -132 61 -160 73 -67 29 -294
145 -325 167 -92 64 -271 121 -505 160 -128 21 -193 23 -290 9z m35 -1072
c615 -137 1139 -455 1483 -900 164 -212 316 -538 397 -854 67 -257 75 -328 74
-678 0 -285 -2 -333 -21 -439 -12 -65 -24 -121 -27 -123 -3 -3 -22 9 -43 26
-43 34 -133 78 -181 87 -28 6 -32 4 -32 -15 0 -12 6 -21 16 -21 8 0 49 -15 90
-34 190 -88 292 -298 239 -495 -63 -236 -304 -394 -537 -352 -99 18 -113 18
-113 2 0 -16 56 -39 97 -40 15 -1 30 -6 33 -11 9 -14 -174 -219 -300 -337
-190 -178 -349 -274 -609 -368 -310 -111 -380 -121 -901 -118 -655 4 -743 15
-1091 133 -211 72 -334 129 -419 194 -141 107 -301 273 -486 503 -252 314
-347 525 -421 933 -20 109 -23 158 -23 390 0 234 12 400 30 418 2 3 16 -10 31
-27 42 -51 139 -120 217 -156 131 -60 177 -70 337 -69 130 0 153 3 225 27 130
44 220 99 315 196 71 72 94 102 132 181 72 148 82 199 83 385 0 172 -11 241
-61 373 -89 239 -286 402 -557 462 -32 8 -56 17 -55 21 6 18 245 264 282 290
44 33 186 81 294 99 60 11 72 16 72 32 0 17 -5 19 -47 13 -27 -4 -74 -13 -106
-21 -32 -8 -61 -14 -64 -14 -13 0 47 41 131 88 207 119 339 155 876 236 58 9
116 18 130 20 14 3 99 3 190 1 143 -3 185 -8 320 -38z m-1997 -772 c189 -49
351 -162 437 -305 115 -192 154 -487 95 -715 -64 -246 -263 -440 -519 -506
-90 -24 -258 -25 -352 -3 -238 55 -422 225 -502 461 -24 72 -26 91 -26 243 0
140 4 178 23 250 81 303 288 515 566 579 64 14 215 12 278 -4z"/>
<path d="M2784 5259 c-9 -15 10 -26 71 -40 147 -35 438 -218 628 -397 46 -43
72 -61 79 -54 16 16 -4 43 -89 117 -187 164 -447 326 -592 369 -64 19 -87 20
-97 5z"/>
<path d="M2625 4650 c-341 -77 -580 -290 -663 -590 -65 -233 -46 -443 58 -653
104 -208 269 -342 530 -430 315 -106 614 -65 857 118 200 150 295 394 280 718
-9 186 -56 325 -162 472 -121 169 -359 331 -543 370 -92 20 -258 18 -357 -5z
m370 -36 c220 -53 462 -250 570 -464 118 -234 119 -573 3 -807 -101 -201 -316
-343 -586 -384 -223 -34 -559 70 -753 232 -103 86 -200 247 -241 400 -26 99
-31 296 -9 394 45 206 163 385 322 491 207 138 474 191 694 138z"/>
<path d="M2667 3935 c-15 -32 -15 -39 -3 -63 12 -24 21 -28 65 -30 39 -1 52 2
59 16 15 27 2 84 -19 89 -11 3 -19 9 -19 14 0 5 -15 9 -33 9 -28 0 -36 -5 -50
-35z"/>
<path d="M1341 3192 c-95 -57 -156 -116 -186 -176 -22 -46 -25 -62 -19 -103
13 -93 93 -168 191 -180 64 -7 170 20 256 65 63 34 80 53 58 66 -5 3 -44 -12
-87 -33 -121 -60 -222 -72 -295 -35 -40 20 -76 69 -84 113 -13 80 42 155 185
246 39 25 70 49 70 54 0 23 -34 17 -89 -17z"/>
<path d="M840 2262 c0 -36 156 -126 305 -176 103 -35 211 -60 355 -82 219 -34
762 -22 786 18 14 22 -17 26 -121 13 -216 -28 -549 -15 -790 30 -174 33 -355
103 -475 184 -52 36 -60 37 -60 13z"/>
<path d="M759 4219 c-31 -44 -16 -72 47 -88 43 -11 50 -10 61 5 7 10 13 26 13
35 0 25 -40 66 -72 73 -22 5 -31 1 -49 -25z"/>
</g>
</svg>
